# xmcd
#
# Track frame offsets: 
#        150
#        22904
#        47427
#        72810
#        107081
#        132965
#        161407
#        180625
#        206607
#        223518
#
# Disc length: 3374 seconds
#
# Revision: 2
# Processed by: cddbd v1.5.2PL0 Copyright (c) Steve Scherf et al.
# Submitted via: ExactAudioCopyFreeDBPlugin 1.0
#
DISCID=810d2c0a
DTITLE=The Isley Brothers - Go All the Way
DYEAR=1980
DGENRE=Rhythm and Blues
TTITLE0=Go All the Way (Parts 1 and 2)
TTITLE1=Say You Will (Parts 1 and 2)
TTITLE2=Pass it On (Parts 1 and 2)
TTITLE3=Here We Go Again (Parts 1 and 2)
TTITLE4=Don't Say Goodnight (It's Time for Love) (Parts 1 and 2)
TTITLE5=The Belly Dancer (Parts 1 and 2)
TTITLE6=Here We Go Again (Part 1) (single version)
TTITLE7=Don't Say Goodnight (It's Time for Love) (instrumental)
TTITLE8=Go All the Way (rehearsal)
TTITLE9=Pass it On (rehearsal)
EXTD=
EXTT0=
EXTT1=
EXTT2=
EXTT3=
EXTT4=
EXTT5=
EXTT6=
EXTT7=
EXTT8=
EXTT9=
PLAYORDER=
